<?xml version="1.0" standalone="no"?>
<!DOCTYPE svg PUBLIC "-//W3C//DTD SVG 20010904//EN"
 "http://www.w3.org/TR/2001/REC-SVG-20010904/DTD/svg10.dtd">
<svg version="1.0" xmlns="http://www.w3.org/2000/svg"
 width="512.000000pt" height="512.000000pt" viewBox="0 0 512.000000 512.000000"
 preserveAspectRatio="xMidYMid meet">

<g transform="translate(0.000000,512.000000) scale(0.100000,-0.100000)"
fill="#000000" stroke="none">
<path d="M1152 5105 c-59 -26 -62 -44 -62 -422 0 -384 2 -395 72 -421 46 -18
82 -9 119 28 l29 28 0 364 c0 398 1 391 -60 423 -36 18 -55 18 -98 0z"/>
<path d="M2882 5100 c-18 -11 -37 -32 -42 -46 -16 -40 -13 -713 3 -744 7 -14
29 -34 49 -45 35 -18 40 -19 80 -5 77 27 78 33 78 423 0 381 -2 396 -64 422
-47 20 -65 19 -104 -5z"/>
<path d="M1066 2790 c-93 -28 -113 -151 -33 -200 31 -19 58 -20 931 -20 l898
0 34 34 c29 29 34 41 34 79 0 37 -6 51 -29 75 l-29 29 -558 6 c-720 9 -1212 8
-1248 -3z"/>
<path d="M3733 2219 c-174 -15 -359 -79 -504 -174 -100 -65 -273 -240 -332
-336 -318 -513 -182 -1174 310 -1512 196 -134 463 -208 694 -193 409 28 759
263 933 627 208 435 122 935 -220 1274 -171 170 -422 289 -649 310 -120 11
-142 12 -232 4z m766 -705 c36 -30 49 -81 32 -123 -15 -34 -748 -738 -798
-765 -64 -35 -83 -22 -340 237 l-233 233 0 46 c0 76 65 129 136 112 19 -5 93
-70 211 -187 l183 -180 22 19 c12 10 161 152 331 314 170 162 319 300 331 307
37 21 91 16 125 -13z"/>
<path d="M1033 2051 c-22 -14 -36 -33 -44 -62 -11 -37 -11 -46 7 -78 39 -73
23 -72 629 -69 585 3 565 1 599 59 26 43 21 94 -13 131 l-29 33 -559 3 c-539
2 -559 2 -590 -17z"/>
</g>
</svg>
